<?xml version="1.0" standalone="no"?>
<!DOCTYPE svg PUBLIC "-//W3C//DTD SVG 20010904//EN"
 "http://www.w3.org/TR/2001/REC-SVG-20010904/DTD/svg10.dtd">
<svg version="1.0" xmlns="http://www.w3.org/2000/svg"
 width="712.000000pt" height="712.000000pt" viewBox="0 0 712.000000 712.000000"
 preserveAspectRatio="xMidYMid meet">
<metadata>
Created by potrace 1.11, written by Peter Selinger 2001-2013
</metadata>
<g transform="translate(0.000000,712.000000) scale(0.100000,-0.100000)"
fill="#000000" stroke="none">
<path d="M3330 7114 c-240 -21 -428 -51 -626 -99 -1273 -312 -2287 -1326
-2599 -2599 -75 -308 -100 -520 -100 -856 0 -336 25 -548 100 -856 312 -1273
1326 -2287 2599 -2599 308 -75 520 -100 856 -100 336 0 548 25 856 100 1273
312 2287 1326 2599 2599 75 308 100 520 100 856 0 336 -25 548 -100 856 -223
912 -813 1708 -1625 2196 -431 260 -883 414 -1415 484 -105 14 -551 26 -645
18z m580 -1029 c427 -62 810 -220 1158 -478 51 -38 118 -92 148 -120 l55 -50
-168 -169 c-92 -92 -171 -168 -175 -168 -5 0 -41 27 -81 61 -461 389 -1080
540 -1705 418 -301 -58 -618 -209 -871 -413 l-84 -68 -169 169 -169 168 53 49
c71 66 226 181 336 249 303 188 672 318 1012 356 52 6 109 13 125 15 74 9 429
-3 535 -19z m-2451 -851 c311 -367 502 -791 576 -1274 9 -58 19 -186 22 -285
17 -531 -131 -1046 -428 -1485 -86 -127 -228 -300 -247 -300 -4 0 -83 76 -176
169 l-168 168 48 54 c229 258 395 600 464 953 68 351 48 652 -67 998 -74 225
-202 468 -344 656 -27 36 -48 70 -46 76 4 12 300 335 307 335 3 0 29 -29 59
-65z m4442 -107 l167 -173 -50 -60 c-142 -170 -291 -441 -362 -659 -73 -224
-98 -388 -97 -640 0 -99 3 -200 7 -225 56 -420 202 -758 463 -1074 l65 -78
-175 -169 c-96 -92 -178 -168 -184 -168 -17 0 -142 158 -240 304 -223 334
-350 659 -412 1055 -22 143 -25 537 -5 675 58 399 189 749 397 1060 80 120
240 323 255 324 3 0 80 -77 171 -172z m-2054 -519 c153 -89 379 -221 503 -293
l225 -131 2 -594 2 -595 -227 -129 c-125 -71 -355 -203 -510 -293 l-284 -164
-181 105 c-152 86 -642 369 -794 456 -29 17 -43 33 -47 54 -3 15 -6 282 -6
592 l0 563 383 222 c210 122 438 255 507 295 69 40 130 73 137 74 6 0 136 -73
290 -162z m1256 -2696 l169 -169 -53 -47 c-207 -186 -513 -368 -794 -471 -129
-48 -367 -108 -520 -131 -165 -24 -513 -25 -680 -1 -339 49 -685 171 -959 339
-102 61 -284 195 -364 265 l-43 38 169 168 169 169 81 -62 c326 -245 732 -410
1102 -448 122 -13 347 -7 474 13 362 55 714 212 996 443 41 34 77 62 80 62 3
0 81 -76 173 -168z"/>
</g>
</svg>
